<svg xmlns="http://www.w3.org/2000/svg" viewBox="0 0 64 64" role="img" aria-labelledby="title desc">
  <title id="title">PersonaLayer Symbol</title>
  <desc id="desc">A human profile containing layered context lines, representing personal context for AI tools.</desc>
  <rect width="64" height="64" rx="16" fill="#111114"/>
  <rect x="1" y="1" width="62" height="62" rx="15" fill="none" stroke="#a78bfa" stroke-opacity="0.42" stroke-width="2"/>
  <path d="M35.7 11.2c-11.7 0-18.9 7.2-18.9 18.1 0 5.6 2.1 9.9 5.6 13.1 2.4 2.1 3.2 4.8 3.2 8.3v2.7H49v-6.9c4-.8 6.4-2.9 6.4-6.7v-4.3l3.7-1.1-4.5-6.4c-1.1-10.1-8-16.8-18.9-16.8Z" fill="none" stroke="#f4f4f5" stroke-width="4.5" stroke-linecap="round" stroke-linejoin="round"/>
  <path d="M26.7 22.7h14.4M24.5 30.7h19.5M27.7 38.7h12.8" fill="none" stroke="#a78bfa" stroke-width="3.6" stroke-linecap="round"/>
  <path d="M10.9 21.9C7.5 25.1 5.9 28.5 5.9 32s1.6 6.9 5 10.1" fill="none" stroke="#a78bfa" stroke-width="3.6" stroke-linecap="round"/>
  <circle cx="47.2" cy="30.7" r="3.5" fill="#4ade80"/>
</svg>
